# xmcd
#
# Track frame offsets:
#	225
#	17594
#	33906
#	50440
#	69035
#	82616
#	100097
#	117356
#	133500
#	150312
#
# Disc length: 2261 seconds
#
# Revision: 1
# Processed by: cddbd v1.5.2PL0 Copyright (c) Steve Scherf et al.
# Submitted via: audiograbber 1.83.01
#
DISCID=6508d20a
DTITLE=Jerry Daniel - Burnt Corn Blues
DYEAR=1994
DGENRE=Blues
TTITLE0=If I Had Possession Over Judgement Day
TTITLE1=How Many Mo' Years
TTITLE2=Rollin' Stone
TTITLE3=Baby, Please Don't Go
TTITLE4=Walkin' Blues
TTITLE5=Come On In My Kitchen
TTITLE6=You Got To Move
TTITLE7=Lil' Red Rooster
TTITLE8=Southbound Blues
TTITLE9=Ramblin' On My Mind
EXTD=
EXTT0=
EXTT1=
EXTT2=
EXTT3=
EXTT4=
EXTT5=
EXTT6=
EXTT7=
EXTT8=
EXTT9=
PLAYORDER=
